<?xml version="1.0" encoding="UTF-8" standalone="no"?>
<!-- Created with Inkscape (http://www.inkscape.org/) -->

<svg
   xmlns:dc="http://purl.org/dc/elements/1.1/"
   xmlns:cc="http://creativecommons.org/ns#"
   xmlns:rdf="http://www.w3.org/1999/02/22-rdf-syntax-ns#"
   xmlns:svg="http://www.w3.org/2000/svg"
   xmlns="http://www.w3.org/2000/svg"
   xmlns:sodipodi="http://sodipodi.sourceforge.net/DTD/sodipodi-0.dtd"
   xmlns:inkscape="http://www.inkscape.org/namespaces/inkscape"
   width="210mm"
   height="297mm"
   id="svg2"
   version="1.1"
   inkscape:version="0.48.1 "
   sodipodi:docname="Ying-Yang_Grisales.svg">
  <defs
     id="defs4" />
  <sodipodi:namedview
     id="base"
     pagecolor="#ffffff"
     bordercolor="#666666"
     borderopacity="1.0"
     inkscape:pageopacity="0.0"
     inkscape:pageshadow="2"
     inkscape:zoom="0.49127573"
     inkscape:cx="372.04724"
     inkscape:cy="526.18109"
     inkscape:document-units="px"
     inkscape:current-layer="layer1"
     showgrid="false"
     showguides="true"
     inkscape:guide-bbox="true"
     inkscape:window-width="1366"
     inkscape:window-height="706"
     inkscape:window-x="-8"
     inkscape:window-y="-8"
     inkscape:window-maximized="1" />
  <metadata
     id="metadata7">
    <rdf:RDF>
      <cc:Work
         rdf:about="">
        <dc:format>image/svg+xml</dc:format>
        <dc:type
           rdf:resource="http://purl.org/dc/dcmitype/StillImage" />
        <dc:title></dc:title>
      </cc:Work>
    </rdf:RDF>
  </metadata>
  <g
     inkscape:label="Capa 1"
     inkscape:groupmode="layer"
     id="layer1">
    <path
       style="fill:#000000;fill-opacity:1;fill-rule:evenodd;stroke:none"
       d="M 372.0625 186.1875 C 278.17409 186.1875 202.0625 262.2991 202.0625 356.1875 C 202.0625 450.07591 278.17409 526.1875 372.0625 526.1875 C 465.95092 526.1875 542.0625 602.2991 542.0625 696.1875 C 542.0625 790.07591 465.95092 866.1875 372.0625 866.1875 C 559.83932 866.1875 712.0625 713.96432 712.0625 526.1875 C 712.0625 338.41068 559.83932 186.1875 372.0625 186.1875 z M 372.0625 311.1875 C 396.91531 311.1875 417.0625 331.33469 417.0625 356.1875 C 417.0625 381.04031 396.91531 401.1875 372.0625 401.1875 C 347.20969 401.1875 327.0625 381.04031 327.0625 356.1875 C 327.0625 331.33469 347.20969 311.1875 372.0625 311.1875 z "
       id="path2996" />
    <path
       sodipodi:type="arc"
       style="fill:#000000;fill-opacity:1;fill-rule:evenodd;stroke:none"
       id="path3884"
       sodipodi:cx="-526.91217"
       sodipodi:cy="769.43323"
       sodipodi:rx="144.32812"
       sodipodi:ry="161.51004"
       d="m -382.58405,769.43323 a 144.32812,161.51004 0 1 1 -288.65625,0 144.32812,161.51004 0 1 1 288.65625,0 z"
       transform="matrix(0.31178954,0,0,0.27862045,536.33291,481.80767)" />
    <path
       style="fill:#000000;fill-opacity:1;fill-rule:evenodd;stroke:none"
       d="M 372.0625 166.1875 C 173.23999 166.1875 12.0625 327.36499 12.0625 526.1875 C 12.0625 725.01001 173.23999 886.1875 372.0625 886.1875 C 570.88501 886.1875 732.0625 725.01001 732.0625 526.1875 C 732.0625 327.36499 570.88501 166.1875 372.0625 166.1875 z M 372.0625 186.1875 C 559.83932 186.1875 712.0625 338.41068 712.0625 526.1875 C 712.0625 713.96432 559.83932 866.1875 372.0625 866.1875 C 184.28568 866.1875 32.0625 713.96432 32.0625 526.1875 C 32.0625 338.41068 184.28568 186.1875 372.0625 186.1875 z "
       id="path3897" />
  </g>
</svg>
